<?xml version="1.0" standalone="no"?>
<!DOCTYPE svg PUBLIC "-//W3C//DTD SVG 1.1//EN" "http://www.w3.org/Graphics/SVG/1.1/DTD/svg11.dtd" >
<svg xmlns="http://www.w3.org/2000/svg">
<metadata></metadata>
<defs>
<font id="QlikViewSansRegular" horiz-adv-x="1228" >
<font-face units-per-em="2048" ascent="1536" descent="-512" />
<missing-glyph horiz-adv-x="409" />
<glyph unicode="&#xfb01;" horiz-adv-x="1128" d="M61 936v139h136v41q0 109 21.5 185.5t63.5 118.5t94 60.5t122 18.5q78 0 159 -24l-18 -136q-59 23 -125 23q-82 0 -120 -51t-38 -166v-70h609v-1075h-160v936h-449v-936h-159v936h-136zM782 1386q0 51 29 81t76 30q48 0 77 -29.5t29 -81.5q0 -50 -29 -79t-77 -29 t-76.5 29t-28.5 79z" />
<glyph unicode="&#xfb02;" horiz-adv-x="1128" d="M61 936v139h136v41q0 109 21.5 185.5t63.5 118.5t94 60.5t122 18.5q78 0 159 -24l-18 -136q-59 23 -125 23q-82 0 -120 -51t-38 -166v-70h246v-139h-246v-936h-159v936h-136zM805 1475h160v-1475h-160v1475z" />
<glyph unicode="&#xfb03;" horiz-adv-x="1736" d="M356 936v-936h-159v936h-136v139h136v21q0 109 21.5 185.5t63.5 118.5t94 60.5t122 18.5q75 0 159 -25l-18 -135q-57 22 -125 22q-82 0 -120 -51t-38 -166v-49h449v41q0 109 21.5 185.5t63.5 118.5t94 60.5t122 18.5q79 0 160 -24l-19 -136q-59 23 -125 23 q-82 0 -119.5 -51t-37.5 -166v-70h608v-1075h-160v936h-448v-936h-160v936h-449zM1391 1386q0 51 28.5 81t75.5 30q48 0 77.5 -29.5t29.5 -81.5q0 -50 -29.5 -79t-77.5 -29t-76 28.5t-28 79.5z" />
<glyph unicode="&#xfb04;" horiz-adv-x="1736" d="M356 936v-936h-159v936h-136v139h136v21q0 109 21.5 185.5t63.5 118.5t94 60.5t122 18.5q75 0 159 -25l-18 -135q-57 22 -125 22q-82 0 -120 -51t-38 -166v-49h449v41q0 109 21.5 185.5t63.5 118.5t94 60.5t122 18.5q79 0 160 -24l-19 -136q-59 23 -125 23 q-82 0 -119.5 -51t-37.5 -166v-70h245v-139h-245v-936h-160v936h-449zM1413 1475h160v-1475h-160v1475z" />
<glyph horiz-adv-x="0" />
<glyph horiz-adv-x="2048" />
<glyph unicode=" "  horiz-adv-x="409" />
<glyph unicode="&#x09;" horiz-adv-x="409" />
<glyph unicode="&#xa0;" horiz-adv-x="409" />
<glyph unicode="!" horiz-adv-x="628" d="M231 1475h170v-349l-14 -780h-141l-15 778v351zM188 106q0 60 34 97t91 37q58 0 92.5 -36t34.5 -98q0 -61 -34.5 -96t-92.5 -35q-57 0 -91 35t-34 96z" />
<glyph unicode="&#x22;" horiz-adv-x="702" d="M422 1090l-16 385h153l-20 -385h-117zM160 1090l-17 385h154l-21 -385h-116z" />
<glyph unicode="#" horiz-adv-x="1298" d="M842 0h-135l45 301h-289l-45 -301h-133l45 301h-226l19 117h223l49 325h-233l18 119h232l41 275h133l-41 -275h289l40 275h136l-41 -275h225l-18 -119h-224l-49 -325h238l-19 -117h-235zM768 418l49 325h-289l-49 -325h289z" />
<glyph unicode="$" d="M569 -164v172q-183 13 -288.5 113t-137.5 266l138 66q11 -47 25 -85t38 -77.5t53.5 -67.5t73.5 -48.5t98 -27.5v525q-48 11 -81 20.5t-76 26.5t-72 36t-59.5 48.5t-49 65t-30 85t-11.5 109.5q0 114 52 198.5t135.5 129t191.5 57.5v170h131v-168q89 -8 157 -41 t111.5 -86.5t70 -113.5t42.5 -136l-143 -55q-26 130 -81 202.5t-157 88.5v-516q49 -12 81.5 -21.5t76.5 -26.5t73 -35t61 -47t50.5 -62.5t30.5 -81t12 -103.5q0 -175 -101 -282t-284 -126v-172h-131zM924 393q0 105 -58 158.5t-166 85.5v-487q115 13 169.5 73t54.5 170z M346 1073q0 -55 16.5 -97t49 -70t69 -46.5t88.5 -34.5v482q-223 -27 -223 -234z" />
<glyph unicode="%" d="M856 -20q-125 0 -186.5 84t-61.5 227t70.5 229t189.5 86q118 0 179 -81.5t61 -223.5q0 -152 -64.5 -236.5t-187.5 -84.5zM860 82q121 0 121 215q0 104 -27.5 154.5t-89.5 50.5q-127 0 -127 -209q0 -211 123 -211zM365 848q-124 0 -186 83t-62 228q0 143 71 229.5 t189 86.5q119 0 179 -81.5t60 -224.5q0 -150 -63.5 -235.5t-187.5 -85.5zM369 952q120 0 120 213q0 104 -27.5 154.5t-90.5 50.5q-125 0 -125 -207q0 -211 123 -211zM231 0h-135l893 1475h150z" />
<glyph unicode="&#x26;" horiz-adv-x="1454" d="M846 911q-69 -52 -152 -102l365 -395q91 160 100 424l150 -21q-13 -168 -42 -279.5t-100 -232.5l205 -227l-115 -103l-188 199q-220 -199 -508 -199q-112 0 -199.5 31.5t-141 86t-80.5 124.5t-27 152q0 105 41 187.5t112 144.5t191 133q-89 91 -129.5 168t-40.5 157 q0 146 103 243t286 97q160 0 254 -80.5t94 -195.5q0 -96 -43 -168.5t-135 -143.5zM967 283l-420 454q-77 -50 -119 -82.5t-80 -76t-52.5 -91.5t-14.5 -112q0 -121 81.5 -191.5t225.5 -70.5q103 0 201.5 46.5t177.5 123.5zM451 1174q0 -62 32.5 -115t118.5 -148l2 -4 q20 13 58 40.5t47 33.5q72 49 110.5 100t38.5 117q0 75 -51.5 118.5t-140.5 43.5q-102 0 -158.5 -51t-56.5 -135z" />
<glyph unicode="'" horiz-adv-x="440" d="M160 1090l-17 385h154l-21 -385h-116z" />
<glyph unicode="(" horiz-adv-x="649" d="M571 -233l-153 -60q-314 446 -314 920q0 91 13 182.5t29.5 162.5t50.5 155t57 134.5t68.5 129t65.5 110.5t67 105l161 -43q-53 -85 -78 -125.5t-68 -116.5t-63.5 -123.5t-48.5 -121.5t-41 -137t-22.5 -143.5t-9.5 -166.5q0 -127 22.5 -246.5t67.5 -230.5t88.5 -195 t107.5 -190z" />
<glyph unicode=")" horiz-adv-x="649" d="M66 1546l153 60q313 -444 313 -920q0 -91 -13 -182t-29.5 -162.5t-50 -155t-57 -135t-68 -129t-65.5 -111t-67 -104.5l-162 43q54 87 78 126t68 116t64 123.5t48.5 121.5t41 137.5t22.5 143t10 166.5q0 127 -22.5 246.5t-67.5 230.5t-88.5 195t-107.5 190z" />
<glyph unicode="*" horiz-adv-x="964" d="M526 1546l33 -282l262 65l27 -88l-244 -123l162 -246l-70 -55l-217 205l-215 -211l-69 59l159 248l-248 121l29 88l266 -63l39 282h86z" />
<glyph unicode="+" d="M993 631h-307v-307h-145v307h-305v143h305v295h145v-295h307v-143z" />
<glyph unicode="," horiz-adv-x="495" d="M240 -240l-103 35l74 211q-88 21 -88 111q0 54 35 87.5t92 33.5q51 0 87 -28.5t36 -94.5q0 -55 -43 -152z" />
<glyph unicode="-" horiz-adv-x="657" d="M606 547h-555v145h555v-145z" />
<glyph unicode="." horiz-adv-x="497" d="M123 106q0 60 34 97t91 37q58 0 92.5 -36t34.5 -98q0 -61 -34.5 -96t-92.5 -35q-57 0 -91 35t-34 96z" />
<glyph unicode="/" horiz-adv-x="776" d="M184 -188h-170l586 1757h168z" />
<glyph unicode="0" d="M125 725q0 369 135 571.5t375 202.5q241 0 355 -186t114 -551q0 -142 -13 -254t-46.5 -214.5t-88.5 -170.5t-143 -108t-205 -40q-483 0 -483 750zM289 760q0 -98 2 -135l635 372q-26 181 -95 272t-204 91q-166 0 -252 -159t-86 -441zM940 752q0 61 -2 92l-633 -371 q58 -360 313 -360q175 0 248.5 156t73.5 483z" />
<glyph unicode="1" d="M582 152v1091q-57 -41 -137 -75t-148 -50l-18 127q220 67 356 230h108v-1323h287v-152h-751v152h303z" />
<glyph unicode="2" d="M254 0v131l264 367q91 125 130 180t84.5 126t60 111.5t24.5 89.5t10 107q0 68 -18.5 117.5t-51.5 75.5t-71.5 37.5t-85.5 11.5q-99 0 -163 -61t-113 -177l-131 66q47 148 156 232.5t267 84.5q64 0 118.5 -11.5t103.5 -39.5t83 -71t54 -109.5t20 -151.5q0 -47 -9.5 -96.5 t-21.5 -89.5t-39.5 -93.5t-45.5 -86t-58.5 -92t-60.5 -87t-69 -93.5q-17 -23 -25 -34l-217 -292h540v-152h-735z" />
<glyph unicode="3" d="M162 186l100 119q136 -186 324 -186q121 0 198.5 68.5t77.5 215.5q0 297 -346 297h-102v144h73q139 0 221.5 87t82.5 197q0 114 -61 171t-159 57t-162 -50t-112 -151l-127 72q59 135 164.5 203.5t240.5 68.5q175 0 277 -86.5t102 -261.5q0 -124 -69 -221.5t-191 -136.5 v-9q164 -23 250 -119t86 -259q0 -205 -124.5 -318t-315.5 -113q-81 0 -156 22t-127.5 56.5t-88 67.5t-56.5 65z" />
<glyph unicode="4" d="M784 0v303h-653v135l598 1037h217v-1031h150v-141h-150v-303h-162zM772 1270l-483 -826h495v826h-12z" />
<glyph unicode="5" d="M246 659l76 816h663v-152h-528l-66 -528q125 118 297 118q82 0 146.5 -25.5t105.5 -68.5t68 -102t38 -122t11 -134q0 -221 -128 -353.5t-327 -132.5q-86 0 -161.5 21.5t-127 56t-84.5 66.5t-55 65l100 115q140 -182 324 -182q129 0 211 88t82 260q0 309 -242 309 q-154 0 -280 -145z" />
<glyph unicode="6" d="M158 664q0 835 510 835q134 0 222 -63.5t146 -206.5l-133 -76q-79 205 -246 205q-319 0 -335 -598q60 62 157 108.5t201 46.5q187 0 299.5 -114.5t112.5 -325.5q0 -231 -128 -365.5t-335 -134.5q-79 0 -147 22t-128.5 73.5t-103 129.5t-67.5 196.5t-25 267.5zM324 602 q-1 -43 3.5 -88.5t16 -103t35 -107.5t57 -93t87 -68t120.5 -25q129 0 205 83.5t76 268.5q0 303 -262 303q-97 0 -197 -55t-141 -115z" />
<glyph unicode="7" d="M600 0h-168v217q0 79 18 155t36.5 119t60.5 130l346 702h-721v152h903v-123l-366 -762q-67 -141 -84 -196q-25 -83 -25 -171v-223z" />
<glyph unicode="8" d="M473 778q-143 74 -203.5 153t-60.5 195q0 164 122.5 268.5t317.5 104.5q179 0 294.5 -88.5t115.5 -245.5q0 -130 -67.5 -216.5t-217.5 -170.5q131 -69 157 -85q111 -70 148 -167q23 -62 23 -145q0 -128 -70.5 -222t-181.5 -139t-244 -45q-93 0 -174.5 23t-147.5 68.5 t-104.5 121.5t-38.5 174q0 79 24 143.5t70.5 114t103.5 86.5t134 72zM643 848q119 60 184.5 129.5t65.5 169.5t-64.5 155.5t-197.5 55.5q-113 0 -186.5 -52.5t-73.5 -148.5q0 -101 58.5 -168t213.5 -141zM602 700q-46 -22 -75.5 -37.5t-68 -39t-62 -46.5t-46 -53.5t-33 -67 t-10.5 -79.5q0 -120 85 -192t220 -72q63 0 117.5 13.5t102 43t75 83t27.5 126.5q0 31 -4.5 57t-16.5 49t-24 41t-36 36.5t-44 32t-56 32.5t-63 32t-75 35q-8 4 -13 6z" />
<glyph unicode="9" d="M1081 819q0 -70 -2 -129t-9 -130t-18.5 -129t-31.5 -119.5t-47 -109.5t-66 -92t-87.5 -72.5t-113.5 -45.5t-141 -17q-135 0 -241.5 68t-159.5 197l125 86q45 -99 119.5 -154t173.5 -55q330 0 336 594q-59 -61 -157 -106.5t-202 -45.5q-187 0 -299.5 113.5t-112.5 324.5 q0 232 128 367t335 135q79 0 147 -22.5t128.5 -73.5t103 -128t67.5 -193.5t25 -262.5zM915 866q0 37 -2 75t-9.5 88.5t-20.5 94.5t-36.5 88.5t-55 76t-78.5 51.5t-105 20q-138 0 -216.5 -85t-78.5 -271q0 -159 72.5 -231.5t196.5 -72.5q97 0 194.5 53t138.5 113z" />
<glyph unicode=":" horiz-adv-x="548" d="M174 106q0 60 34 97t91 37q58 0 92.5 -36t34.5 -98q0 -61 -34.5 -96t-92.5 -35q-57 0 -91 35t-34 96zM174 967q0 60 34 96.5t91 36.5q58 0 92.5 -35.5t34.5 -97.5q0 -61 -34.5 -96t-92.5 -35q-57 0 -91 35t-34 96z" />
<glyph unicode=";" horiz-adv-x="548" d="M174 967q0 60 34 96.5t91 36.5q58 0 92.5 -35.5t34.5 -97.5q0 -61 -34.5 -96t-92.5 -35q-57 0 -91 35t-34 96zM283 -240l-103 35l74 211q-88 21 -88 111q0 54 35 87.5t92 33.5q51 0 87 -28.5t36 -94.5q0 -55 -43 -152z" />
<glyph unicode="&#x3c;" d="M993 225l-757 277v180l757 305v-164l-606 -227l606 -209v-162z" />
<glyph unicode="=" d="M993 723h-757v143h757v-143zM993 399h-757v144h757v-144z" />
<glyph unicode="&#x3e;" d="M993 502l-757 -277v162l606 209l-606 227v164l757 -305v-180z" />
<glyph unicode="?" horiz-adv-x="1024" d="M874 1075q0 -207 -97.5 -330t-282.5 -149v-215h-150v330q108 5 181 32.5t111.5 78t53.5 110.5t15 143q0 139 -63 211t-175 72q-94 0 -153 -56.5t-101 -168.5l-127 61q52 150 153 227.5t240 77.5q183 0 289 -110.5t106 -313.5zM293 106q0 60 34 97t91 37q58 0 92.5 -36 t34.5 -98q0 -61 -34.5 -96t-92.5 -35q-57 0 -91 35t-34 96z" />
<glyph unicode="@" horiz-adv-x="1681" d="M864 678q-93 0 -162 -102t-69 -269q0 -108 32 -151t99 -43q111 0 197 100l61 381q-26 33 -68.5 58.5t-89.5 25.5zM1206 -20q-159 0 -205 124q-70 -67 -133 -98t-143 -31q-124 0 -189 78.5t-65 237.5q0 140 47.5 258.5t138 191t205.5 72.5q67 0 111 -24t84 -68l22 70h131 l-84 -525q-13 -80 9.5 -116t101.5 -37q87 0 142 91t55 263q0 275 -149 425t-404 150q-147 0 -266.5 -51t-198.5 -141t-121.5 -214t-42.5 -271q0 -152 45.5 -270t127 -191t190 -110.5t239.5 -37.5q249 0 438 138l78 -113q-240 -164 -528 -164q-164 0 -299 45.5t-235.5 135 t-156 232.5t-55.5 328q0 373 213 594.5t576 221.5q152 0 278 -42t221 -125.5t148 -217.5t53 -308q0 -245 -100.5 -373t-278.5 -128z" />
<glyph unicode="A" horiz-adv-x="1277" d="M1237 0h-190l-117 375h-592l-121 -375h-176l498 1475h209zM639 1303l-254 -785h500z" />
<glyph unicode="B" horiz-adv-x="1300" d="M209 0v1475h401q92 0 165 -10.5t138.5 -37t109 -69t68.5 -108.5t25 -154q0 -119 -60.5 -205t-168.5 -123q146 -23 228.5 -108.5t82.5 -237.5q0 -422 -547 -422h-442zM379 678v-531h270q92 0 155.5 11t114.5 40t76 82.5t25 133.5q0 79 -28.5 133t-80.5 81.5t-109.5 38.5 t-131.5 11h-291zM379 1325v-498h256q303 0 303 250q0 143 -83 195.5t-267 52.5h-209z" />
<glyph unicode="C" horiz-adv-x="1357" d="M303 737q0 -304 112 -458t318 -154q263 0 408 268l127 -88q-77 -147 -213.5 -238.5t-317.5 -91.5q-299 0 -456.5 187.5t-157.5 568.5q0 187 48 334t134.5 241.5t204 143.5t258.5 49q206 0 339 -113t169 -305l-158 -61q-64 330 -354 330q-221 0 -341 -157.5t-120 -455.5z " />
<glyph unicode="D" horiz-adv-x="1427" d="M625 0h-416v1475h416q680 0 680 -699q0 -776 -680 -776zM379 152h217q121 0 212 27t151 76.5t97.5 125.5t53.5 168t16 211q0 302 -125.5 433.5t-379.5 131.5h-242v-1173z" />
<glyph unicode="E" horiz-adv-x="1159" d="M379 1323v-516h604v-152h-604v-503h668v-152h-838v1475h815v-152h-645z" />
<glyph unicode="F" horiz-adv-x="1105" d="M379 1323v-537h584v-151h-584v-635h-170v1475h815v-152h-645z" />
<glyph unicode="G" horiz-adv-x="1429" d="M1270 139q-221 -164 -508 -164q-639 0 -639 756q0 187 48 334t134.5 241.5t204 143.5t258.5 49q206 0 339 -113t169 -305l-158 -61q-64 330 -354 330q-222 0 -341.5 -158.5t-119.5 -462.5q0 -305 115.5 -455.5t367.5 -150.5q185 0 320 98v338h-324v150h488v-570z" />
<glyph unicode="H" horiz-adv-x="1464" d="M379 668v-668h-170v1475h170v-656h706v656h170v-1475h-170v668h-706z" />
<glyph unicode="I" horiz-adv-x="698" d="M434 1323v-1171h162v-152h-494v152h162v1171h-162v152h494v-152h-162z" />
<glyph unicode="J" horiz-adv-x="1087" d="M733 451v1024h170v-1026q0 -474 -418 -474q-98 0 -175 28t-125.5 76.5t-78 102.5t-45.5 117l138 86q13 -42 26 -73t37 -68.5t52.5 -61.5t73 -40.5t99.5 -16.5q131 0 188.5 77.5t57.5 248.5z" />
<glyph unicode="K" horiz-adv-x="1325" d="M1206 1475l-520 -598l404 -678q32 -54 72.5 -72t111.5 -12l-14 -127q-39 -8 -78 -8q-86 0 -142.5 38t-111.5 129l-359 596l-190 -219v-524h-170v1475h170v-730l625 730h202z" />
<glyph unicode="L" horiz-adv-x="1118" d="M379 152h647v-152h-817v1475h170v-1323z" />
<glyph unicode="M" horiz-adv-x="1744" d="M375 1257v-1257h-166v1475h233l443 -949l420 949h231v-1475h-166v1262l-414 -916h-151z" />
<glyph unicode="N" horiz-adv-x="1464" d="M375 1229v-1229h-166v1475h213l668 -1205v1205h165v-1475h-194z" />
<glyph unicode="O" horiz-adv-x="1550" d="M123 731q0 186 50.5 333.5t141 242t213 143.5t269.5 49q298 0 464 -193t166 -554q0 -371 -160.5 -574t-490.5 -203q-304 0 -478.5 192t-174.5 564zM303 737q0 -614 483 -614q239 0 351 153.5t112 475.5q0 293 -117 445.5t-344 152.5q-231 0 -358 -158t-127 -455z" />
<glyph unicode="P" horiz-adv-x="1310" d="M584 500h-205v-500h-170v1475h416q304 0 449 -109t145 -362q0 -265 -158 -384.5t-477 -119.5zM379 1325v-678h235q218 0 322 79t104 259q0 101 -22.5 166.5t-75 104t-128.5 54t-193 15.5h-242z" />
<glyph unicode="Q" horiz-adv-x="1550" d="M123 735q0 185 50.5 331.5t141 240.5t213 143t269.5 49q298 0 464 -193t166 -554q0 -210 -57 -371.5t-162 -257.5l123 -119q73 -70 176 -70l-14 -118q-149 -23 -297 112l-119 107q-129 -60 -301 -60q-149 0 -268.5 47.5t-205.5 140t-132.5 238t-46.5 334.5zM303 741 q0 -618 483 -618q239 0 351 153.5t112 475.5q0 293 -117 445.5t-344 152.5q-231 0 -358 -157.5t-127 -451.5z" />
<glyph unicode="R" horiz-adv-x="1355" d="M563 582h-184v-582h-170v1475h426q136 0 236 -21t175.5 -69t113.5 -131t38 -201q0 -351 -344 -441l219 -413q30 -55 69.5 -72.5t110.5 -11.5l-14 -127q-39 -8 -78 -8q-89 0 -147 38t-107 129l-233 437q-35 -2 -111 -2zM379 1325v-596h270q371 0 371 299 q0 170 -89.5 233.5t-297.5 63.5h-254z" />
<glyph unicode="S" horiz-adv-x="1245" d="M631 1501q396 0 479 -397l-158 -55q-31 152 -105.5 227.5t-219.5 75.5q-162 0 -238 -71.5t-76 -178.5q0 -71 28 -121.5t75 -79.5t108 -48.5t128.5 -33.5t134.5 -30t128 -43t108 -66.5t75 -106.5t28 -157q0 -205 -140.5 -323t-375.5 -118q-225 0 -355.5 106t-168.5 294 l154 65q13 -54 30.5 -96.5t47 -85.5t67.5 -71.5t95 -46t128 -17.5q169 0 256.5 65.5t87.5 196.5q0 61 -22.5 107.5t-48.5 72.5t-86.5 50t-93.5 32t-113 25q-62 13 -94 21t-87.5 25.5t-86 35.5t-70 49t-60 68.5t-35 91.5t-14.5 120q0 82 26 151t71.5 118t107.5 83t134 50 t151 16z" />
<glyph unicode="T" horiz-adv-x="1114" d="M637 1323v-1323h-170v1323h-416v152h1012v-152h-426z" />
<glyph unicode="U" horiz-adv-x="1421" d="M1067 475v1000h170v-1006q0 -246 -138.5 -370t-393.5 -124q-521 0 -521 498v1002h170v-986q0 -105 24.5 -177t74 -113t114 -58.5t152.5 -17.5q176 0 262 81t86 271z" />
<glyph unicode="V" horiz-adv-x="1236" d="M20 1475h191l407 -1303l422 1303h177l-498 -1475h-209z" />
<glyph unicode="W" horiz-adv-x="1912" d="M860 1475h217l334 -1301l295 1301h176l-354 -1475h-230l-333 1292l-359 -1292h-229l-346 1475h190l275 -1307z" />
<glyph unicode="X" horiz-adv-x="1224" d="M207 0h-187l478 764l-455 711h193l368 -584l371 584h182l-455 -707l502 -768h-198l-412 637z" />
<glyph unicode="Y" horiz-adv-x="1122" d="M0 1475h193l368 -703l381 703h180l-483 -857v-618h-168v618z" />
<glyph unicode="Z" horiz-adv-x="1169" d="M86 0v123l774 1200h-754v152h963v-115l-786 -1208h798v-152h-995z" />
<glyph unicode="[" horiz-adv-x="557" d="M477 -293h-342v1899h342v-131h-170v-1637h170v-131z" />
<glyph unicode="\" horiz-adv-x="778" d="M764 -188h-170l-584 1757h168z" />
<glyph unicode="]" horiz-adv-x="557" d="M422 -293h-342v131h170v1637h-170v131h342v-1899z" />
<glyph unicode="^" horiz-adv-x="929" d="M414 1546h137l315 -760l-143 -51l-244 600h-4l-270 -600l-142 49z" />
<glyph unicode="_" horiz-adv-x="851" d="M0 -98h852v-133h-852v133z" />
<glyph unicode="`" horiz-adv-x="1024" d="M360 1563l297 -254l-65 -88l-326 219z" />
<glyph unicode="a" horiz-adv-x="1034" d="M705 242v245h-199q-130 0 -193 -49t-63 -149q0 -183 188 -183q81 0 150 39.5t117 96.5zM864 721v-533q0 -107 105 -75l6 -109q-104 -34 -172 -5t-82 112q-132 -136 -311 -136q-153 0 -236.5 80.5t-83.5 231.5q0 51 12 95t43 87.5t79 74t127 49.5t181 19h173v123 q0 230 -211 230q-183 0 -254 -191l-131 68q49 134 154.5 196t240.5 62q183 0 271.5 -92t88.5 -287z" />
<glyph unicode="b" horiz-adv-x="1175" d="M1055 561q0 -283 -110.5 -434.5t-321.5 -151.5q-186 0 -310 131l-12 -131h-137v1500h160v-514q66 66 142 102.5t185 36.5q198 0 301 -137.5t103 -401.5zM885 549q0 214 -62.5 310.5t-199.5 96.5q-82 0 -161.5 -39t-137.5 -102v-551q132 -147 294 -147q267 0 267 432z" />
<glyph unicode="c" horiz-adv-x="1036" d="M852 272l96 -96q-62 -90 -160.5 -145.5t-226.5 -55.5q-215 0 -331.5 144.5t-116.5 412.5q0 270 126 419t336 149q72 0 132 -19t101 -49.5t71.5 -73t47 -86.5t25.5 -94l-145 -49q-21 114 -78.5 173t-161.5 59q-139 0 -211.5 -107.5t-72.5 -318.5q0 -95 16 -170t49 -132 t88 -87.5t129 -30.5q92 0 157 38.5t130 118.5z" />
<glyph unicode="d" horiz-adv-x="1175" d="M119 514q0 276 115.5 431t330.5 155q166 0 287 -131v506h160v-1475h-138l-14 125q-69 -69 -149 -109.5t-189 -40.5q-198 0 -300.5 137.5t-102.5 401.5zM289 526q0 -215 62.5 -313t199.5 -98q91 0 170.5 47t130.5 125v520q-62 73 -131 113.5t-156 40.5q-134 0 -205 -108.5 t-71 -326.5z" />
<glyph unicode="e" horiz-adv-x="1042" d="M940 496h-657q6 -173 77.5 -276t214.5 -103q90 0 158.5 39t130.5 114l94 -94q-141 -201 -391 -201q-218 0 -336 144.5t-118 412.5q0 267 126.5 417.5t335.5 150.5q178 0 278.5 -106t100.5 -324q0 -71 -14 -174zM571 961q-256 0 -284 -332h510q2 20 2 59 q0 150 -61.5 211.5t-166.5 61.5z" />
<glyph unicode="f" horiz-adv-x="626" d="M61 936v139h136v41q0 109 21.5 185.5t63.5 118.5t94 60.5t122 18.5q78 0 159 -24l-18 -136q-59 23 -125 23q-82 0 -120 -51t-38 -166v-70h246v-139h-246v-936h-159v936h-136z" />
<glyph unicode="g" horiz-adv-x="1155" d="M279 547q0 -204 62.5 -297.5t199.5 -93.5q91 0 170.5 47t130.5 125v479q-62 73 -131 113.5t-156 40.5q-134 0 -205 -103t-71 -311zM842 47v113q-70 -68 -145.5 -106t-184.5 -38q-197 0 -300 132t-103 382q0 267 115 418.5t321 151.5q181 0 307 -139l12 114h137v-1026 q0 -95 -22 -169.5t-60 -123t-93 -80t-117.5 -44.5t-137.5 -13q-115 0 -225 27t-168 63l43 135q69 -39 165.5 -62.5t195.5 -23.5q53 0 95 11.5t81.5 41t61.5 89.5t22 147z" />
<glyph unicode="h" horiz-adv-x="1146" d="M164 1475h160v-508q141 133 323 133q172 0 254 -103t82 -288v-709h-160v692q0 138 -53.5 201t-159.5 63q-88 0 -163.5 -40t-122.5 -89v-827h-160v1475z" />
<glyph unicode="i" horiz-adv-x="487" d="M164 1075h160v-1075h-160v1075zM141 1386q0 51 29 81t76 30q48 0 77 -29.5t29 -81.5q0 -50 -29 -79t-77 -29t-76.5 29t-28.5 79z" />
<glyph unicode="j" horiz-adv-x="497" d="M-106 -356l18 133q52 -23 115 -23q80 0 113.5 54t33.5 172v1095h160v-1067q0 -110 -20 -187t-59.5 -121t-91 -63.5t-120.5 -19.5q-71 0 -149 27zM147 1386q0 51 29 81t76 30q48 0 77 -29.5t29 -81.5q0 -50 -29 -79t-77 -29t-76.5 29t-28.5 79z" />
<glyph unicode="k" horiz-adv-x="1064" d="M334 1475v-902l432 502h174l-375 -440l244 -451q28 -48 67 -69t105 -15l-14 -112q-39 -8 -72 -8q-86 0 -140 42t-98 125l-196 371l-127 -141v-377h-160v1475h160z" />
<glyph unicode="l" horiz-adv-x="487" d="M164 1475h160v-1475h-160v1475z" />
<glyph unicode="m" horiz-adv-x="1724" d="M164 1075h137l10 -112q137 137 316 137q198 0 274 -164q81 86 161 125t183 39q161 0 238.5 -103t77.5 -288v-709h-160v692q0 138 -48.5 201t-144.5 63q-81 0 -152 -40t-114 -89v-827h-160v692q0 138 -48 201t-144 63q-81 0 -152 -40t-114 -89v-827h-160v1075z" />
<glyph unicode="n" horiz-adv-x="1146" d="M164 1075h137l10 -112q145 137 336 137q172 0 254 -103t82 -288v-709h-162v692q0 138 -53 201t-158 63q-88 0 -163.5 -40t-122.5 -89v-827h-160v1075z" />
<glyph unicode="o" horiz-adv-x="1159" d="M283 535q0 -217 74 -318.5t218 -101.5t223 103t79 319q0 424 -295 424q-299 0 -299 -426zM113 530q0 272 127 421t352 149q218 0 336.5 -145.5t118.5 -417.5q0 -266 -128.5 -414t-353.5 -148q-217 0 -334.5 145t-117.5 410z" />
<glyph unicode="p" horiz-adv-x="1175" d="M1055 561q0 -283 -110.5 -434.5t-321.5 -151.5q-182 0 -299 127v-460h-160v1433h137l12 -119q72 68 150.5 106t187.5 38q198 0 301 -137.5t103 -401.5zM885 549q0 214 -62.5 310.5t-199.5 96.5q-82 0 -161.5 -39t-137.5 -102v-551q132 -147 294 -147q267 0 267 432z" />
<glyph unicode="q" horiz-adv-x="1175" d="M119 514q0 276 115.5 431t330.5 155q172 0 297 -139l12 114h138v-1433h-160v477q-70 -68 -145.5 -106t-184.5 -38q-198 0 -300.5 137.5t-102.5 401.5zM289 526q0 -215 62.5 -313t199.5 -98q91 0 170.5 47t130.5 125v520q-62 73 -131 113.5t-156 40.5q-134 0 -205 -108.5 t-71 -326.5z" />
<glyph unicode="r" horiz-adv-x="757" d="M164 1075h143l10 -149q30 35 57.5 61t69 54.5t93.5 43.5t112 15q22 0 62 -4l-15 -162q-36 4 -51 4q-108 0 -191 -50.5t-130 -111.5v-776h-160v1075z" />
<glyph unicode="s" horiz-adv-x="999" d="M512 1100q318 0 379 -312l-148 -49q-22 114 -75 170t-162 56q-120 0 -171.5 -47t-51.5 -119q0 -44 16.5 -75t51 -51t69 -31.5t88.5 -23.5q14 -3 43 -9q37 -8 56.5 -12.5t55 -13.5t55 -17t49 -22t46 -28.5t36 -36t30 -46t17.5 -57t7 -69.5q0 -154 -113.5 -243t-304.5 -89 q-174 0 -275 83t-128 229l139 53q12 -49 29 -85.5t47 -72t80 -54.5t117 -19q119 0 183 45.5t64 132.5q0 39 -16 69t-35 47t-62.5 33t-67.5 21.5t-82 17.5q-3 1 -5 1.5t-4 0.5q-46 9 -72.5 15t-68 19t-66 26.5t-54.5 37t-46 51t-27.5 67.5t-11.5 89q0 102 56 176t142 108 t191 34z" />
<glyph unicode="t" horiz-adv-x="727" d="M76 936v139h141v236l160 43v-279h260v-139h-260v-606q0 -116 34 -165.5t115 -49.5q74 0 146 37l26 -132q-34 -21 -91.5 -33t-102.5 -12q-150 0 -218.5 73.5t-68.5 232.5v655h-141z" />
<glyph unicode="u" horiz-adv-x="1132" d="M969 0h-138l-10 123q-74 -68 -153 -108t-187 -40q-317 0 -317 392v708h160v-692q0 -141 47.5 -202.5t146.5 -61.5q152 0 291 139v817h160v-1075z" />
<glyph unicode="v" horiz-adv-x="1046" d="M41 1075h178l311 -903l310 903h166l-388 -1075h-178z" />
<glyph unicode="w" horiz-adv-x="1650" d="M41 1075h178l268 -903l265 903h155l271 -903l266 903h166l-344 -1075h-179l-262 864l-250 -864h-178z" />
<glyph unicode="x" horiz-adv-x="983" d="M211 0h-162l348 557l-334 518h173l258 -401l251 401h162l-329 -516l364 -559h-174l-287 440z" />
<glyph unicode="y" horiz-adv-x="993" d="M43 1075h172l293 -864l278 864h166l-377 -1075q-44 -123 -78.5 -195t-75.5 -115.5t-85 -58t-111 -14.5q-48 0 -99.5 11t-72.5 22l17 131q70 -27 139 -27q67 0 101.5 36.5t74.5 141.5l35 91z" />
<glyph unicode="z" horiz-adv-x="894" d="M94 0v119l522 817h-528v139h721v-112l-535 -824h566v-139h-746z" />
<glyph unicode="{" horiz-adv-x="626" d="M604 -158v-133h-110q-281 0 -281 238q0 66 13.5 239.5t13.5 239.5q0 94 -39.5 135t-114.5 41h-37v137h35q156 0 156 174q0 68 -13.5 234.5t-13.5 220.5q0 238 279 238h112v-140h-98q-65 0 -93 -28.5t-28 -85.5q0 -59 13.5 -219t13.5 -228q0 -57 -11.5 -98t-34.5 -67 t-46.5 -41t-59.5 -29q35 -13 59 -28t47 -41t34.5 -67.5t11.5 -97.5q0 -70 -13.5 -238.5t-13.5 -222.5q0 -65 30 -99t113 -34h76z" />
<glyph unicode="|" horiz-adv-x="573" d="M371 -293h-168v1862h168v-1862z" />
<glyph unicode="}" horiz-adv-x="626" d="M23 -291v133h75q83 0 113.5 34t30.5 99q0 54 -13.5 222.5t-13.5 238.5q0 56 11.5 97.5t34.5 67.5t47 41t59 28q-36 14 -59.5 29t-46.5 41t-34.5 67t-11.5 98q0 68 13.5 228t13.5 219q0 57 -28 85.5t-93 28.5h-98v140h112q279 0 279 -238q0 -54 -13.5 -220.5t-13.5 -234.5 q0 -174 156 -174h35v-137h-37q-75 0 -114.5 -41t-39.5 -135q0 -66 13.5 -239.5t13.5 -239.5q0 -238 -281 -238h-110z" />
<glyph unicode="~" horiz-adv-x="1024" d="M211 446l-98 58q30 94 88 148.5t139 54.5q71 0 188 -52q108 -47 156 -47q42 0 75.5 31.5t53.5 79.5l100 -53q-32 -88 -90 -142.5t-131 -54.5q-68 0 -196 53q-112 45 -150 45q-84 0 -135 -121z" />
<glyph unicode="&#xa1;" horiz-adv-x="628" d="M397 -399h-170v348l15 780h141l14 -778v-350zM440 969q0 -60 -34 -96.5t-91 -36.5q-58 0 -92.5 35.5t-34.5 97.5q0 61 34.5 96t92.5 35q57 0 91 -35t34 -96z" />
<glyph unicode="&#xa2;" d="M596 0v180q-183 20 -283 154t-100 366q0 217 103 351t280 161v193h131v-188q147 -14 228 -97.5t102 -197.5l-148 -52q-35 180 -182 205v-749q46 8 88.5 32t66.5 46t62 61l94 -111q-129 -148 -311 -172v-182h-131zM383 707q0 -154 51.5 -255t161.5 -126v747 q-104 -25 -158.5 -119.5t-54.5 -246.5z" />
<glyph unicode="&#xa3;" d="M92 141h109q172 155 172 338q0 103 -47 195h-213v137h157q0 1 -12 21.5t-14 25.5t-13 25t-14.5 30t-11.5 30t-11 34.5t-8 34.5t-6.5 39.5t-1.5 40.5q0 180 130.5 293.5t336.5 113.5q191 0 305 -92.5t137 -267.5l-143 -52q-26 140 -95 207.5t-208 67.5 q-138 0 -214.5 -66.5t-76.5 -183.5q0 -37 6 -72t19 -70t22 -55.5t28 -57.5t24 -46h473v-137h-422q39 -85 39 -191q0 -90 -40 -179.5t-114 -162.5h367q117 0 171 58t72 188l142 -45q-21 -181 -118.5 -261.5t-279.5 -80.5h-647v141z" />
<glyph unicode="&#xa4;" horiz-adv-x="1167" d="M1151 131l-123 -121l-186 183q-109 -76 -269 -76q-165 0 -276 80q-6 -8 -94 -96t-90 -91l-115 119l192 193q-63 108 -63 253q0 131 68 240l-191 189l121 122l182 -180q115 88 281 88q168 0 276 -82l174 172l113 -118l-178 -181q59 -106 59 -241q0 -147 -74 -265zM584 258 q133 0 208.5 90t75.5 227q0 148 -74.5 231t-215.5 83q-135 0 -210 -87t-75 -227q0 -141 73 -229t218 -88z" />
<glyph unicode="&#xa5;" d="M94 1475h193l327 -607l340 607h181l-365 -619h203v-131h-279l-2 -4v-170h281v-131h-281v-420h-168v420h-282v131h282v170l-2 4h-280v131h204z" />
<glyph unicode="&#xa6;" horiz-adv-x="573" d="M371 -293h-168v795h168v-795zM371 868h-168v703h168v-703z" />
<glyph unicode="&#xa7;" horiz-adv-x="1251" d="M680 1501q361 0 436 -362l-147 -49q-30 137 -98.5 201.5t-200.5 64.5q-72 0 -125.5 -19t-84 -51.5t-45 -71.5t-14.5 -84q0 -59 25 -102t67 -67.5t96.5 -42t114.5 -30.5t120.5 -28.5t115 -41t96.5 -62t67 -97.5t25 -143q0 -180 -120 -287q63 -79 63 -204q0 -194 -127 -301 t-344 -107q-205 0 -323.5 96.5t-153.5 268.5l149 61q17 -66 41 -113.5t62.5 -87.5t98.5 -60t140 -20q135 0 212 59t77 169q0 62 -25 106.5t-67 69.5t-97 42.5t-115.5 30t-120.5 27.5t-115 40.5t-97 62.5t-67 100t-25 147q0 168 129 275q-67 80 -67 213q0 102 35.5 180 t97.5 124.5t140.5 69.5t170.5 23zM963 481q0 65 -26.5 111.5t-67 71.5t-100 45t-115.5 30.5t-123.5 29t-114.5 40.5q-37 -31 -56.5 -76.5t-19.5 -91.5q0 -77 36 -127t100 -76t130.5 -41.5t151.5 -36.5t139 -47q66 63 66 168z" />
<glyph unicode="&#xa8;" horiz-adv-x="1024" d="M217 1386q0 51 29 81t76 30q48 0 77 -29.5t29 -81.5q0 -50 -29 -79t-77 -29t-76.5 29t-28.5 79zM594 1386q0 51 28.5 81t75.5 30q48 0 77.5 -29.5t29.5 -81.5q0 -50 -29.5 -79t-77.5 -29t-76 28.5t-28 79.5z" />
<glyph unicode="&#xa9;" horiz-adv-x="1566" d="M1475 715q0 -336 -191 -538t-502 -202q-170 0 -303 54t-217 150.5t-127 224.5t-43 280q0 169 54 308.5t148 232.5t220.5 143.5t271.5 50.5q319 0 504 -190.5t185 -513.5zM786 104q257 0 402 161t145 442q0 277 -149.5 431t-397.5 154q-245 0 -395.5 -162t-150.5 -444 q0 -272 143.5 -427t402.5 -155zM1016 522l80 -73q-50 -68 -130.5 -115t-179.5 -47q-168 0 -258 105.5t-90 303.5q0 197 99 306.5t262 109.5q70 0 124.5 -22.5t88 -61t53.5 -80t29 -88.5l-115 -37q-35 176 -186 176q-224 0 -224 -301t219 -301q71 0 122.5 31.5t105.5 93.5z " />
<glyph unicode="&#xaa;" horiz-adv-x="712" d="M469 971v149h-127q-164 0 -164 -125q0 -110 115 -110q98 0 176 86zM596 1288v-340q0 -75 72 -51l4 -94q-70 -25 -123 -4.5t-62 75.5q-92 -92 -217 -92q-101 0 -160 55t-59 156q0 47 14 85t46.5 72.5t95.5 53.5t151 19h111v67q0 146 -129 146q-126 0 -166 -113l-108 47 q65 176 282 176q248 0 248 -258z" />
<glyph unicode="&#xab;" horiz-adv-x="919" d="M498 117l-107 -60l-309 455l311 457l105 -56l-240 -393zM858 117l-106 -60l-310 455l312 457l104 -56l-240 -393z" />
<glyph unicode="&#xac;" d="M993 371h-151v260h-606v143h757v-403z" />
<glyph unicode="&#xad;" horiz-adv-x="657" d="M606 547h-555v145h555v-145z" />
<glyph unicode="&#xae;" horiz-adv-x="894" d="M813 1141q0 -168 -102 -272.5t-265 -104.5q-177 0 -270.5 100t-93.5 262q0 171 105 274t262 103q168 0 266 -98.5t98 -263.5zM731 1135q0 141 -77 216.5t-205 75.5q-124 0 -203.5 -80t-79.5 -219q0 -135 75.5 -211.5t207.5 -76.5q133 0 207.5 79t74.5 216zM522 1122 l103 -178h-80l-88 156h-56v-156h-73v391h135q129 0 129 -110q0 -74 -70 -103zM401 1157h27q42 0 64 14t22 52q0 31 -18 42t-56 11h-39v-119z" />
<glyph unicode="&#xaf;" horiz-adv-x="1024" d="M238 1307v151h548v-151h-548z" />
<glyph unicode="&#xb0;" horiz-adv-x="604" d="M299 1079q-102 0 -159.5 58.5t-57.5 158.5q0 105 65 165.5t160 60.5q99 0 157 -56.5t58 -158.5q0 -106 -61 -167t-162 -61zM303 1171q49 0 80 32t31 97q0 66 -31 98t-78 32q-50 0 -83.5 -32.5t-33.5 -97.5q0 -129 115 -129z" />
<glyph unicode="&#xb1;" d="M993 631h-307v-307h-145v307h-305v143h305v295h145v-295h307v-143zM993 0h-757v143h757v-143z" />
<glyph unicode="&#xb4;" horiz-adv-x="1024" d="M358 1309l297 254l95 -123l-326 -219z" />
<glyph unicode="&#xb5;" d="M346 43v-401h-160v1433h160v-870q32 -43 87.5 -66.5t121.5 -23.5q89 0 164 46.5t127 125.5v788h160v-887q0 -108 104 -75l6 -109q-56 -18 -102 -18q-65 0 -106.5 37t-47.5 108q-76 -76 -147.5 -116t-161.5 -40q-128 0 -205 68z" />
<glyph unicode="&#xb6;" horiz-adv-x="1366" d="M969 -315v1640h-215v-1642h-162v780h-17q-100 0 -181 27.5t-134.5 74.5t-89.5 113t-52 139t-16 156q0 82 15.5 153t53 136.5t94.5 111.5t145.5 73.5t201.5 27.5h672v-150h-151v-1640h-164z" />
<glyph unicode="&#xb7;" horiz-adv-x="497" d="M123 690q0 60 34 96.5t91 36.5q58 0 92.5 -35.5t34.5 -97.5q0 -61 -34.5 -96t-92.5 -35q-57 0 -91 35t-34 96z" />
<glyph unicode="&#xb8;" horiz-adv-x="1024" d="M375 -182l59 182h90l-32 -104q28 14 69 14q66 0 108 -44t42 -124q0 -97 -53.5 -153t-157.5 -56q-132 0 -211 96l65 84q63 -63 131 -63q43 0 64.5 24.5t21.5 67.5q0 35 -18 56.5t-47 21.5q-43 0 -80 -37z" />
<glyph unicode="&#xba;" horiz-adv-x="829" d="M223 1163q0 -274 189 -274q90 0 142 68t52 208q0 275 -190 275q-193 0 -193 -277zM92 1161q0 184 88 284.5t242 100.5q150 0 232.5 -98t82.5 -283q0 -182 -89 -282.5t-242 -100.5q-150 0 -232 99t-82 280z" />
<glyph unicode="&#xbb;" horiz-adv-x="919" d="M61 909l107 60l309 -455l-311 -457l-105 56l240 393zM422 909l106 60l310 -455l-312 -457l-104 56l240 393z" />
<glyph unicode="&#xbf;" horiz-adv-x="1024" d="M150 0q0 207 97.5 330t282.5 149v215h150v-329q-108 -5 -181 -33t-111.5 -78.5t-53.5 -110.5t-15 -143q0 -139 63 -211t175 -72q94 0 153 56.5t101 169.5l127 -62q-52 -150 -153 -227.5t-240 -77.5q-183 0 -289 110.5t-106 313.5zM731 969q0 -60 -34 -96.5t-91 -36.5 q-58 0 -92.5 35.5t-34.5 97.5q0 61 34.5 96t92.5 35q57 0 91 -35t34 -96z" />
<glyph unicode="&#xc0;" horiz-adv-x="1277" d="M1237 0h-190l-117 375h-592l-121 -375h-176l498 1475h209zM639 1303l-254 -785h500zM442 1870l340 -207l-51 -96l-364 168z" />
<glyph unicode="&#xc1;" horiz-adv-x="1277" d="M1237 0h-190l-117 375h-592l-121 -375h-176l498 1475h209zM639 1303l-254 -785h500zM465 1663l340 207l76 -135l-365 -168z" />
<glyph unicode="&#xc2;" horiz-adv-x="1277" d="M1237 0h-190l-117 375h-592l-121 -375h-176l498 1475h209zM639 1303l-254 -785h500zM666 1839l258 -170l-47 -96l-252 123l-250 -125l-49 96l262 172h78z" />
<glyph unicode="&#xc3;" horiz-adv-x="1277" d="M1237 0h-190l-117 375h-592l-121 -375h-176l498 1475h209zM639 1303l-254 -785h500zM440 1602l-106 30q17 99 67.5 144t106.5 45q48 0 126.5 -33t100.5 -33q51 0 72 84l106 -29q-14 -103 -64.5 -149.5t-113.5 -46.5q-53 0 -128.5 32.5t-94.5 32.5q-51 0 -72 -77z" />
<glyph unicode="&#xc4;" horiz-adv-x="1277" d="M1237 0h-190l-117 375h-592l-121 -375h-176l498 1475h209zM639 1303l-254 -785h500zM330 1710q0 51 28.5 81t75.5 30q48 0 77.5 -29.5t29.5 -81.5q0 -50 -29.5 -79t-77.5 -29t-76 28.5t-28 79.5zM707 1710q0 51 28.5 81t75.5 30q48 0 77.5 -29.5t29.5 -81.5 q0 -50 -29.5 -79t-77.5 -29t-76 28.5t-28 79.5z" />
<glyph unicode="&#xc5;" horiz-adv-x="1277" d="M1237 0h-190l-117 375h-592l-121 -375h-176l498 1475h209zM639 1303l-254 -785h500zM436 1739q0 89 61 149t152 60q98 0 155.5 -57t57.5 -142q0 -97 -60.5 -159t-156.5 -62q-98 0 -153.5 60t-55.5 151zM551 1739q0 -46 26 -75.5t68 -29.5q48 0 75.5 29t27.5 76 q0 48 -26.5 75t-76.5 27q-46 0 -70 -27t-24 -75z" />
<glyph unicode="&#xc6;" horiz-adv-x="1802" d="M1022 1323v-516h604v-152h-604v-503h668v-152h-838v662h-461l-215 -662h-176l498 1475h1169v-152h-645zM606 1323l-168 -518h414v518h-246z" />
<glyph unicode="&#xc7;" horiz-adv-x="1357" d="M575 -182l54 166q-247 31 -376.5 216.5t-129.5 530.5q0 187 48 334t134.5 241.5t204 143.5t258.5 49q206 0 339 -113t169 -305l-158 -61q-64 330 -354 330q-221 0 -341 -157.5t-120 -455.5q0 -304 112 -458t318 -154q263 0 408 268l127 -88q-77 -147 -213.5 -238.5 t-317.5 -91.5h-20l-25 -79q28 14 70 14q66 0 107.5 -44t41.5 -124q0 -97 -53.5 -153t-157.5 -56q-132 0 -211 96l66 84q63 -63 131 -63q43 0 64.5 24.5t21.5 67.5q0 35 -18 56.5t-47 21.5q-43 0 -80 -37z" />
<glyph unicode="&#xc8;" horiz-adv-x="1159" d="M379 1323v-516h604v-152h-604v-503h668v-152h-838v1475h815v-152h-645zM418 1870l340 -207l-51 -96l-365 168z" />
<glyph unicode="&#xc9;" horiz-adv-x="1159" d="M379 1323v-516h604v-152h-604v-503h668v-152h-838v1475h815v-152h-645zM440 1663l340 207l76 -135l-364 -168z" />
<glyph unicode="&#xca;" horiz-adv-x="1159" d="M379 1323v-516h604v-152h-604v-503h668v-152h-838v1475h815v-152h-645zM641 1839l258 -170l-47 -96l-252 123l-250 -125l-49 96l262 172h78z" />
<glyph unicode="&#xcb;" horiz-adv-x="1159" d="M379 1323v-516h604v-152h-604v-503h668v-152h-838v1475h815v-152h-645zM305 1710q0 51 29 81t76 30q48 0 77 -29.5t29 -81.5q0 -50 -29 -79t-77 -29t-76.5 29t-28.5 79zM682 1710q0 51 28.5 81t75.5 30q48 0 77.5 -29.5t29.5 -81.5q0 -50 -29.5 -79t-77.5 -29t-76 28.5 t-28 79.5z" />
<glyph unicode="&#xcc;" horiz-adv-x="698" d="M434 1323v-1171h162v-152h-494v152h162v1171h-162v152h494v-152h-162zM145 1870l340 -207l-51 -96l-364 168z" />
<glyph unicode="&#xcd;" horiz-adv-x="698" d="M434 1323v-1171h162v-152h-494v152h162v1171h-162v152h494v-152h-162zM168 1663l340 207l76 -135l-365 -168z" />
<glyph unicode="&#xce;" horiz-adv-x="698" d="M434 1323v-1171h162v-152h-494v152h162v1171h-162v152h494v-152h-162zM369 1839l258 -170l-47 -96l-252 123l-250 -125l-49 96l262 172h78z" />
<glyph unicode="&#xcf;" horiz-adv-x="698" d="M434 1323v-1171h162v-152h-494v152h162v1171h-162v152h494v-152h-162zM33 1710q0 51 28.5 81t75.5 30q48 0 77.5 -29.5t29.5 -81.5q0 -50 -29.5 -79t-77.5 -29t-76 28.5t-28 79.5zM410 1710q0 51 28.5 81t75.5 30q48 0 77.5 -29.5t29.5 -81.5q0 -50 -29.5 -79t-77.5 -29 t-76 28.5t-28 79.5z" />
<glyph unicode="&#xd0;" horiz-adv-x="1386" d="M29 694v150h180v631h416q680 0 680 -699q0 -776 -680 -776h-416v694h-180zM379 152h217q121 0 212 27t151 76.5t97.5 125.5t53.5 168t16 211q0 302 -125.5 433.5t-379.5 131.5h-242v-481h397v-150h-397v-542z" />
<glyph unicode="&#xd1;" horiz-adv-x="1464" d="M375 1229v-1229h-166v1475h213l668 -1205v1205h165v-1475h-194zM518 1602l-106 30q17 99 67.5 144t106.5 45q48 0 126.5 -33t100.5 -33q51 0 72 84l106 -29q-14 -103 -64.5 -149.5t-113.5 -46.5q-53 0 -128.5 32.5t-94.5 32.5q-51 0 -72 -77z" />
<glyph unicode="&#xd2;" horiz-adv-x="1550" d="M123 731q0 186 50.5 333.5t141 242t213 143.5t269.5 49q298 0 464 -193t166 -554q0 -371 -160.5 -574t-490.5 -203q-304 0 -478.5 192t-174.5 564zM303 737q0 -614 483 -614q239 0 351 153.5t112 475.5q0 293 -117 445.5t-344 152.5q-231 0 -358 -158t-127 -455z M588 1870l340 -207l-51 -96l-365 168z" />
<glyph unicode="&#xd3;" horiz-adv-x="1550" d="M123 731q0 186 50.5 333.5t141 242t213 143.5t269.5 49q298 0 464 -193t166 -554q0 -371 -160.5 -574t-490.5 -203q-304 0 -478.5 192t-174.5 564zM303 737q0 -614 483 -614q239 0 351 153.5t112 475.5q0 293 -117 445.5t-344 152.5q-231 0 -358 -158t-127 -455z M610 1663l340 207l76 -135l-364 -168z" />
<glyph unicode="&#xd4;" horiz-adv-x="1550" d="M123 731q0 186 50.5 333.5t141 242t213 143.5t269.5 49q298 0 464 -193t166 -554q0 -371 -160.5 -574t-490.5 -203q-304 0 -478.5 192t-174.5 564zM303 737q0 -614 483 -614q239 0 351 153.5t112 475.5q0 293 -117 445.5t-344 152.5q-231 0 -358 -158t-127 -455z M811 1839l258 -170l-47 -96l-252 123l-250 -125l-49 96l262 172h78z" />
<glyph unicode="&#xd5;" horiz-adv-x="1550" d="M123 731q0 186 50.5 333.5t141 242t213 143.5t269.5 49q298 0 464 -193t166 -554q0 -371 -160.5 -574t-490.5 -203q-304 0 -478.5 192t-174.5 564zM303 737q0 -614 483 -614q239 0 351 153.5t112 475.5q0 293 -117 445.5t-344 152.5q-231 0 -358 -158t-127 -455z M586 1602l-107 30q17 99 67.5 144t106.5 45q48 0 127 -33t101 -33q50 0 71 84l107 -29q-14 -103 -64.5 -149.5t-113.5 -46.5q-53 0 -129 32.5t-95 32.5q-50 0 -71 -77z" />
<glyph unicode="&#xd6;" horiz-adv-x="1550" d="M123 731q0 186 50.5 333.5t141 242t213 143.5t269.5 49q298 0 464 -193t166 -554q0 -371 -160.5 -574t-490.5 -203q-304 0 -478.5 192t-174.5 564zM303 737q0 -614 483 -614q239 0 351 153.5t112 475.5q0 293 -117 445.5t-344 152.5q-231 0 -358 -158t-127 -455z M475 1710q0 51 29 81t76 30q48 0 77 -29.5t29 -81.5q0 -50 -29 -79t-77 -29t-76.5 29t-28.5 79zM852 1710q0 51 28.5 81t75.5 30q48 0 77.5 -29.5t29.5 -81.5q0 -50 -29.5 -79t-77.5 -29t-76 28.5t-28 79.5z" />
<glyph unicode="&#xd7;" d="M924 913l-213 -213l217 -217l-103 -102l-217 217l-215 -215l-102 100l217 215l-211 211l102 103l211 -209l213 213z" />
<glyph unicode="&#xd8;" horiz-adv-x="1509" d="M123 731q0 186 50.5 333.5t141 242t213 143.5t269.5 49q105 0 207 -29l71 152l144 -63l-72 -154q135 -87 207.5 -252.5t72.5 -400.5q0 -371 -160.5 -574t-490.5 -203q-145 0 -266 45l-80 -170l-145 64l84 184q-246 191 -246 633zM1249 752q0 359 -178 505l-489 -1099 q90 -35 204 -35q239 0 351 153.5t112 475.5zM303 737q0 -335 146 -487l483 1079q-75 21 -144 21q-231 0 -358 -158t-127 -455z" />
<glyph unicode="&#xd9;" horiz-adv-x="1421" d="M1067 475v1000h170v-1006q0 -246 -138.5 -370t-393.5 -124q-521 0 -521 498v1002h170v-986q0 -105 24.5 -177t74 -113t114 -58.5t152.5 -17.5q176 0 262 81t86 271zM508 1870l340 -207l-51 -96l-365 168z" />
<glyph unicode="&#xda;" horiz-adv-x="1421" d="M1067 475v1000h170v-1006q0 -246 -138.5 -370t-393.5 -124q-521 0 -521 498v1002h170v-986q0 -105 24.5 -177t74 -113t114 -58.5t152.5 -17.5q176 0 262 81t86 271zM530 1663l340 207l76 -135l-364 -168z" />
<glyph unicode="&#xdb;" horiz-adv-x="1421" d="M1067 475v1000h170v-1006q0 -246 -138.5 -370t-393.5 -124q-521 0 -521 498v1002h170v-986q0 -105 24.5 -177t74 -113t114 -58.5t152.5 -17.5q176 0 262 81t86 271zM731 1839l258 -170l-47 -96l-252 123l-250 -125l-49 96l262 172h78z" />
<glyph unicode="&#xdc;" horiz-adv-x="1421" d="M1067 475v1000h170v-1006q0 -246 -138.5 -370t-393.5 -124q-521 0 -521 498v1002h170v-986q0 -105 24.5 -177t74 -113t114 -58.5t152.5 -17.5q176 0 262 81t86 271zM395 1710q0 51 29 81t76 30q48 0 77 -29.5t29 -81.5q0 -50 -29 -79t-77 -29t-76.5 29t-28.5 79z M772 1710q0 51 29 81t76 30q48 0 77 -29.5t29 -81.5q0 -50 -29 -79t-77 -29t-76.5 29t-28.5 79z" />
<glyph unicode="&#xdd;" horiz-adv-x="1122" d="M0 1475h193l368 -703l381 703h180l-483 -857v-618h-168v618zM381 1663l340 207l76 -135l-365 -168z" />
<glyph unicode="&#xde;" horiz-adv-x="1239" d="M532 301h-174v-301h-170v1475h170v-240h215q305 0 449.5 -104t144.5 -347q0 -255 -158 -369t-477 -114zM358 1085v-636h205q218 0 322 74t104 243q0 95 -22.5 156.5t-75.5 97.5t-129 50.5t-193 14.5h-211z" />
<glyph unicode="&#xdf;" horiz-adv-x="1273" d="M330 999v-999h-160v1030q0 126 33.5 218t96 146t142.5 79.5t181 25.5q192 0 294.5 -96t102.5 -266q0 -53 -15 -129t-30 -115q-46 8 -78 8q-75 0 -126.5 -32t-51.5 -105q0 -44 25.5 -75.5t66 -51t89 -37t97.5 -40t89.5 -53t66 -82.5t25.5 -122q0 -149 -93 -238.5 t-254 -89.5q-162 0 -255 82.5t-111 227.5l137 45q11 -101 68 -161t161 -60q91 0 139 47t48 133q0 50 -25 85t-65.5 56t-89 38.5t-97.5 38.5t-89.5 49t-65.5 78t-25 118q0 121 82 191t207 75q14 42 14 117q0 221 -246 221q-143 0 -215.5 -82t-72.5 -275z" />
<glyph unicode="&#xe0;" horiz-adv-x="1034" d="M705 242v245h-199q-130 0 -193 -49t-63 -149q0 -183 188 -183q81 0 150 39.5t117 96.5zM864 721v-533q0 -107 105 -75l6 -109q-104 -34 -172 -5t-82 112q-132 -136 -311 -136q-153 0 -236.5 80.5t-83.5 231.5q0 51 12 95t43 87.5t79 74t127 49.5t181 19h173v123 q0 230 -211 230q-183 0 -254 -191l-131 68q49 134 154.5 196t240.5 62q183 0 271.5 -92t88.5 -287zM332 1563l297 -254l-66 -88l-325 219z" />
<glyph unicode="&#xe1;" horiz-adv-x="1034" d="M705 242v245h-199q-130 0 -193 -49t-63 -149q0 -183 188 -183q81 0 150 39.5t117 96.5zM864 721v-533q0 -107 105 -75l6 -109q-104 -34 -172 -5t-82 112q-132 -136 -311 -136q-153 0 -236.5 80.5t-83.5 231.5q0 51 12 95t43 87.5t79 74t127 49.5t181 19h173v123 q0 230 -211 230q-183 0 -254 -191l-131 68q49 134 154.5 196t240.5 62q183 0 271.5 -92t88.5 -287zM330 1309l297 254l94 -123l-326 -219z" />
<glyph unicode="&#xe2;" horiz-adv-x="1034" d="M705 242v245h-199q-130 0 -193 -49t-63 -149q0 -183 188 -183q81 0 150 39.5t117 96.5zM864 721v-533q0 -107 105 -75l6 -109q-104 -34 -172 -5t-82 112q-132 -136 -311 -136q-153 0 -236.5 80.5t-83.5 231.5q0 51 12 95t43 87.5t79 74t127 49.5t181 19h173v123 q0 230 -211 230q-183 0 -254 -191l-131 68q49 134 154.5 196t240.5 62q183 0 271.5 -92t88.5 -287zM524 1528l244 -219l-68 -86l-217 151l-215 -153l-69 86l247 221h78z" />
<glyph unicode="&#xe3;" horiz-adv-x="1034" d="M705 242v245h-199q-130 0 -193 -49t-63 -149q0 -183 188 -183q81 0 150 39.5t117 96.5zM864 721v-533q0 -107 105 -75l6 -109q-104 -34 -172 -5t-82 112q-132 -136 -311 -136q-153 0 -236.5 80.5t-83.5 231.5q0 51 12 95t43 87.5t79 74t127 49.5t181 19h173v123 q0 230 -211 230q-183 0 -254 -191l-131 68q49 134 154.5 196t240.5 62q183 0 271.5 -92t88.5 -287zM299 1268l-106 30q17 99 67.5 144t106.5 45q48 0 126.5 -33t100.5 -33q51 0 72 84l106 -28q-14 -103 -64.5 -150t-113.5 -47q-53 0 -128.5 33t-94.5 33q-51 0 -72 -78z" />
<glyph unicode="&#xe4;" horiz-adv-x="1034" d="M705 242v245h-199q-130 0 -193 -49t-63 -149q0 -183 188 -183q81 0 150 39.5t117 96.5zM864 721v-533q0 -107 105 -75l6 -109q-104 -34 -172 -5t-82 112q-132 -136 -311 -136q-153 0 -236.5 80.5t-83.5 231.5q0 51 12 95t43 87.5t79 74t127 49.5t181 19h173v123 q0 230 -211 230q-183 0 -254 -191l-131 68q49 134 154.5 196t240.5 62q183 0 271.5 -92t88.5 -287zM188 1386q0 51 29 81t76 30q48 0 77 -29.5t29 -81.5q0 -50 -29 -79t-77 -29t-76.5 29t-28.5 79zM565 1386q0 51 29 81t76 30q48 0 77 -29.5t29 -81.5q0 -50 -29 -79t-77 -29 t-76.5 29t-28.5 79z" />
<glyph unicode="&#xe5;" horiz-adv-x="1034" d="M705 242v245h-199q-130 0 -193 -49t-63 -149q0 -183 188 -183q81 0 150 39.5t117 96.5zM864 721v-533q0 -107 105 -75l6 -109q-104 -34 -172 -5t-82 112q-132 -136 -311 -136q-153 0 -236.5 80.5t-83.5 231.5q0 51 12 95t43 87.5t79 74t127 49.5t181 19h173v123 q0 230 -211 230q-183 0 -254 -191l-131 68q49 134 154.5 196t240.5 62q183 0 271.5 -92t88.5 -287zM270 1425q0 89 61 149t152 60q98 0 155.5 -56.5t57.5 -141.5q0 -97 -60.5 -159.5t-156.5 -62.5q-98 0 -153.5 60t-55.5 151zM385 1425q0 -46 26 -75t68 -29q49 0 76 28.5 t27 75.5q0 48 -26.5 75.5t-76.5 27.5q-46 0 -70 -27.5t-24 -75.5z" />
<glyph unicode="&#xe6;" horiz-adv-x="1624" d="M1522 496h-658q6 -173 78 -276t215 -103q90 0 158.5 39t130.5 114l94 -94q-141 -201 -391 -201q-244 0 -361 177q-168 -177 -378 -177q-153 0 -236.5 80.5t-83.5 231.5q0 51 12 95t43 87.5t79 74t127 49.5t181 19h173v123q0 230 -211 230q-183 0 -254 -191l-131 68 q49 134 154.5 196t240.5 62q234 0 311 -170q126 170 342 170q178 0 278.5 -106t100.5 -324q0 -71 -14 -174zM438 106q156 0 295 160q-33 90 -39 221h-188q-130 0 -193 -49t-63 -149q0 -183 188 -183zM1153 961q-257 0 -285 -332h510q2 20 2 59q0 150 -61 211.5t-166 61.5z " />
<glyph unicode="&#xe7;" horiz-adv-x="1015" d="M412 -182l53 166q-171 31 -261.5 171t-90.5 377q0 270 126 419t336 149q72 0 132 -19t101 -49.5t71.5 -73t47 -86.5t25.5 -94l-145 -49q-21 114 -78.5 173t-161.5 59q-139 0 -211.5 -107.5t-72.5 -318.5q0 -95 16 -170t49 -132t88 -87.5t129 -30.5q92 0 157 38.5 t130 118.5l96 -96q-62 -90 -160.5 -145.5t-226.5 -55.5h-8l-25 -79q28 14 70 14q66 0 108 -44t42 -124q0 -97 -53.5 -153t-157.5 -56q-132 0 -211 96l65 84q63 -63 131 -63q43 0 64.5 24.5t21.5 67.5q0 35 -18 56.5t-47 21.5q-43 0 -80 -37z" />
<glyph unicode="&#xe8;" horiz-adv-x="1042" d="M940 496h-657q6 -173 77.5 -276t214.5 -103q90 0 158.5 39t130.5 114l94 -94q-141 -201 -391 -201q-218 0 -336 144.5t-118 412.5q0 267 126.5 417.5t335.5 150.5q178 0 278.5 -106t100.5 -324q0 -71 -14 -174zM571 961q-256 0 -284 -332h510q2 20 2 59 q0 150 -61.5 211.5t-166.5 61.5zM406 1563l296 -254l-65 -88l-326 219z" />
<glyph unicode="&#xe9;" horiz-adv-x="1042" d="M940 496h-657q6 -173 77.5 -276t214.5 -103q90 0 158.5 39t130.5 114l94 -94q-141 -201 -391 -201q-218 0 -336 144.5t-118 412.5q0 267 126.5 417.5t335.5 150.5q178 0 278.5 -106t100.5 -324q0 -71 -14 -174zM571 961q-256 0 -284 -332h510q2 20 2 59 q0 150 -61.5 211.5t-166.5 61.5zM403 1309l297 254l95 -123l-326 -219z" />
<glyph unicode="&#xea;" horiz-adv-x="1042" d="M940 496h-657q6 -173 77.5 -276t214.5 -103q90 0 158.5 39t130.5 114l94 -94q-141 -201 -391 -201q-218 0 -336 144.5t-118 412.5q0 267 126.5 417.5t335.5 150.5q178 0 278.5 -106t100.5 -324q0 -71 -14 -174zM571 961q-256 0 -284 -332h510q2 20 2 59 q0 150 -61.5 211.5t-166.5 61.5zM598 1528l244 -219l-68 -86l-217 151l-215 -153l-70 86l248 221h78z" />
<glyph unicode="&#xeb;" horiz-adv-x="1042" d="M940 496h-657q6 -173 77.5 -276t214.5 -103q90 0 158.5 39t130.5 114l94 -94q-141 -201 -391 -201q-218 0 -336 144.5t-118 412.5q0 267 126.5 417.5t335.5 150.5q178 0 278.5 -106t100.5 -324q0 -71 -14 -174zM571 961q-256 0 -284 -332h510q2 20 2 59 q0 150 -61.5 211.5t-166.5 61.5zM262 1386q0 51 29 81t76 30q48 0 77 -29.5t29 -81.5q0 -50 -29 -79t-77 -29t-76.5 29t-28.5 79zM639 1386q0 51 28.5 81t75.5 30q48 0 77.5 -29.5t29.5 -81.5q0 -50 -29.5 -79t-77.5 -29t-76 28.5t-28 79.5z" />
<glyph unicode="&#xec;" horiz-adv-x="487" d="M164 1075h160v-1075h-160v1075zM92 1563l297 -254l-65 -88l-326 219z" />
<glyph unicode="&#xed;" horiz-adv-x="487" d="M164 1075h160v-1075h-160v1075zM90 1309l297 254l94 -123l-325 -219z" />
<glyph unicode="&#xee;" horiz-adv-x="487" d="M164 1075h160v-1075h-160v1075zM285 1528l243 -219l-67 -86l-217 151l-215 -153l-70 86l248 221h78z" />
<glyph unicode="&#xef;" horiz-adv-x="487" d="M164 1075h160v-1075h-160v1075zM-51 1386q0 51 28.5 81t75.5 30q48 0 77.5 -29.5t29.5 -81.5q0 -50 -29.5 -79t-77.5 -29t-76 28.5t-28 79.5zM326 1386q0 51 28.5 81t75.5 30q48 0 77.5 -29.5t29.5 -81.5q0 -50 -29.5 -79t-77.5 -29t-76 28.5t-28 79.5z" />
<glyph unicode="&#xf0;" horiz-adv-x="1157" d="M911 1419l-147 -69q280 -265 280 -750q0 -310 -125.5 -467.5t-353.5 -157.5q-217 0 -334.5 145t-117.5 410q0 269 119.5 419.5t318.5 150.5q181 0 299 -164l8 4q-75 201 -233 346l-211 -98l-49 104l159 74q-19 13 -147 92l176 45q63 -36 113 -71l196 90zM283 535 q0 -217 74 -318.5t218 -101.5t223 103t79 319t-78.5 320t-216.5 104q-299 0 -299 -426z" />
<glyph unicode="&#xf1;" horiz-adv-x="1146" d="M164 1075h137l10 -112q145 137 336 137q172 0 254 -103t82 -288v-709h-162v692q0 138 -53 201t-158 63q-88 0 -163.5 -40t-122.5 -89v-827h-160v1075zM385 1268l-106 30q17 99 67.5 144t106.5 45q48 0 126.5 -33t100.5 -33q51 0 72 84l106 -28q-14 -103 -64.5 -150 t-113.5 -47q-53 0 -128.5 33t-94.5 33q-51 0 -72 -78z" />
<glyph unicode="&#xf2;" horiz-adv-x="1159" d="M283 535q0 -217 74 -318.5t218 -101.5t223 103t79 319q0 424 -295 424q-299 0 -299 -426zM113 530q0 272 127 421t352 149q218 0 336.5 -145.5t118.5 -417.5q0 -266 -128.5 -414t-353.5 -148q-217 0 -334.5 145t-117.5 410zM418 1563l297 -254l-66 -88l-325 219z" />
<glyph unicode="&#xf3;" horiz-adv-x="1159" d="M283 535q0 -217 74 -318.5t218 -101.5t223 103t79 319q0 424 -295 424q-299 0 -299 -426zM113 530q0 272 127 421t352 149q218 0 336.5 -145.5t118.5 -417.5q0 -266 -128.5 -414t-353.5 -148q-217 0 -334.5 145t-117.5 410zM416 1309l297 254l94 -123l-326 -219z" />
<glyph unicode="&#xf4;" horiz-adv-x="1159" d="M283 535q0 -217 74 -318.5t218 -101.5t223 103t79 319q0 424 -295 424q-299 0 -299 -426zM113 530q0 272 127 421t352 149q218 0 336.5 -145.5t118.5 -417.5q0 -266 -128.5 -414t-353.5 -148q-217 0 -334.5 145t-117.5 410zM610 1528l244 -219l-68 -86l-217 151 l-215 -153l-69 86l247 221h78z" />
<glyph unicode="&#xf5;" horiz-adv-x="1159" d="M283 535q0 -217 74 -318.5t218 -101.5t223 103t79 319q0 424 -295 424q-299 0 -299 -426zM113 530q0 272 127 421t352 149q218 0 336.5 -145.5t118.5 -417.5q0 -266 -128.5 -414t-353.5 -148q-217 0 -334.5 145t-117.5 410zM385 1268l-106 30q17 99 67.5 144t106.5 45 q48 0 126.5 -33t100.5 -33q51 0 72 84l106 -28q-14 -103 -64.5 -150t-113.5 -47q-53 0 -128.5 33t-94.5 33q-51 0 -72 -78z" />
<glyph unicode="&#xf6;" horiz-adv-x="1159" d="M283 535q0 -217 74 -318.5t218 -101.5t223 103t79 319q0 424 -295 424q-299 0 -299 -426zM113 530q0 272 127 421t352 149q218 0 336.5 -145.5t118.5 -417.5q0 -266 -128.5 -414t-353.5 -148q-217 0 -334.5 145t-117.5 410zM274 1386q0 51 29 81t76 30q48 0 77 -29.5 t29 -81.5q0 -50 -29 -79t-77 -29t-76.5 29t-28.5 79zM651 1386q0 51 29 81t76 30q48 0 77 -29.5t29 -81.5q0 -50 -29 -79t-77 -29t-76.5 29t-28.5 79z" />
<glyph unicode="&#xf7;" d="M993 631h-757v143h757v-143zM496 395q0 54 31 87.5t83 33.5q53 0 85 -32.5t32 -88.5t-32 -88.5t-85 -32.5t-83.5 32t-30.5 89zM496 1010q0 54 31 87t83 33q53 0 85 -32t32 -88t-32 -88.5t-85 -32.5t-83.5 32t-30.5 89z" />
<glyph unicode="&#xf8;" horiz-adv-x="1138" d="M113 530q0 272 127 421t352 149q72 0 137 -19l62 138l139 -58l-66 -145q183 -141 183 -479q0 -266 -128.5 -414t-353.5 -148q-86 0 -159 25l-68 -152l-139 58l75 168q-161 143 -161 456zM877 537q0 223 -84 331l-320 -739q43 -14 102 -14q144 0 223 103t79 319zM283 535 q0 -206 67 -310l314 725q-46 11 -82 11q-299 0 -299 -426z" />
<glyph unicode="&#xf9;" horiz-adv-x="1132" d="M969 0h-138l-10 123q-74 -68 -153 -108t-187 -40q-317 0 -317 392v708h160v-692q0 -141 47.5 -202.5t146.5 -61.5q152 0 291 139v817h160v-1075zM397 1563l297 -254l-65 -88l-326 219z" />
<glyph unicode="&#xfa;" horiz-adv-x="1132" d="M969 0h-138l-10 123q-74 -68 -153 -108t-187 -40q-317 0 -317 392v708h160v-692q0 -141 47.5 -202.5t146.5 -61.5q152 0 291 139v817h160v-1075zM395 1309l297 254l94 -123l-325 -219z" />
<glyph unicode="&#xfb;" horiz-adv-x="1132" d="M969 0h-138l-10 123q-74 -68 -153 -108t-187 -40q-317 0 -317 392v708h160v-692q0 -141 47.5 -202.5t146.5 -61.5q152 0 291 139v817h160v-1075zM590 1528l244 -219l-68 -86l-217 151l-215 -153l-70 86l248 221h78z" />
<glyph unicode="&#xfc;" horiz-adv-x="1132" d="M969 0h-138l-10 123q-74 -68 -153 -108t-187 -40q-317 0 -317 392v708h160v-692q0 -141 47.5 -202.5t146.5 -61.5q152 0 291 139v817h160v-1075zM254 1386q0 51 28.5 81t75.5 30q48 0 77.5 -29.5t29.5 -81.5q0 -50 -29.5 -79t-77.5 -29t-76 28.5t-28 79.5zM631 1386 q0 51 28.5 81t75.5 30q48 0 77.5 -29.5t29.5 -81.5q0 -50 -29.5 -79t-77.5 -29t-76 28.5t-28 79.5z" />
<glyph unicode="&#xfd;" horiz-adv-x="993" d="M43 1075h172l293 -864l278 864h166l-377 -1075q-44 -123 -78.5 -195t-75.5 -115.5t-85 -58t-111 -14.5q-48 0 -99.5 11t-72.5 22l17 131q70 -27 139 -27q67 0 101.5 36.5t74.5 141.5l35 91zM291 1309l297 254l94 -123l-326 -219z" />
<glyph unicode="&#xfe;" horiz-adv-x="1155" d="M874 549q0 214 -62.5 310.5t-199.5 96.5q-82 0 -161.5 -39t-137.5 -102v-551q132 -147 295 -147q266 0 266 432zM154 -358v1833h159v-514q66 66 142.5 102.5t185.5 36.5q198 0 300.5 -137.5t102.5 -401.5q0 -283 -110.5 -434.5t-321.5 -151.5q-182 0 -299 127v-460h-159z " />
<glyph unicode="&#xff;" horiz-adv-x="993" d="M43 1075h172l293 -864l278 864h166l-377 -1075q-44 -123 -78.5 -195t-75.5 -115.5t-85 -58t-111 -14.5q-48 0 -99.5 11t-72.5 22l17 131q70 -27 139 -27q67 0 101.5 36.5t74.5 141.5l35 91zM193 1386q0 51 28.5 81t75.5 30q48 0 77 -29.5t29 -81.5q0 -50 -29 -79t-77 -29 t-76 28.5t-28 79.5zM569 1386q0 51 29 81t76 30q48 0 77 -29.5t29 -81.5q0 -50 -29 -79t-77 -29t-76.5 29t-28.5 79z" />
<glyph unicode="&#x152;" horiz-adv-x="2111" d="M1331 1323v-516h604v-152h-604v-503h668v-152h-838v78q-153 -103 -385 -103q-304 0 -478.5 192t-174.5 564q0 186 51.5 333.5t143 241.5t215 143.5t270.5 49.5q206 0 358 -98v74h815v-152h-645zM303 737q0 -614 483 -614q247 0 375 125v981q-136 123 -356 123 q-242 0 -372 -158.5t-130 -456.5z" />
<glyph unicode="&#x153;" horiz-adv-x="1794" d="M1692 496h-658q6 -173 78 -276t215 -103q90 0 158.5 39t130.5 114l94 -94q-141 -201 -391 -201q-264 0 -369 211q-117 -211 -385 -211q-217 0 -334.5 145t-117.5 410q0 272 127 421t352 149q261 0 366 -215q118 215 369 215q178 0 278.5 -106t100.5 -324q0 -71 -14 -174z M283 535q0 -217 74 -318.5t218 -101.5t223 103t79 319q0 424 -295 424q-299 0 -299 -426zM1323 961q-257 0 -285 -332h510q2 20 2 59q0 150 -61 211.5t-166 61.5z" />
<glyph unicode="&#x178;" horiz-adv-x="1122" d="M0 1475h193l368 -703l381 703h180l-483 -857v-618h-168v618zM246 1710q0 51 28.5 81t75.5 30q48 0 77.5 -29.5t29.5 -81.5q0 -50 -29.5 -79t-77.5 -29t-76 28.5t-28 79.5zM623 1710q0 51 28.5 81t75.5 30q48 0 77.5 -29.5t29.5 -81.5q0 -50 -29.5 -79t-77.5 -29t-76 28.5 t-28 79.5z" />
<glyph unicode="&#x2c6;" horiz-adv-x="1024" d="M553 1528l244 -219l-68 -86l-217 151l-215 -153l-70 86l248 221h78z" />
<glyph unicode="&#x2dc;" horiz-adv-x="1024" d="M328 1268l-107 30q17 99 67.5 144t106.5 45q48 0 127 -33t101 -33q50 0 71 84l107 -28q-14 -103 -64.5 -150t-113.5 -47q-53 0 -129 33t-95 33q-50 0 -71 -78z" />
<glyph unicode="&#x2000;" horiz-adv-x="974" />
<glyph unicode="&#x2001;" horiz-adv-x="1948" />
<glyph unicode="&#x2002;" horiz-adv-x="974" />
<glyph unicode="&#x2003;" horiz-adv-x="1948" />
<glyph unicode="&#x2004;" horiz-adv-x="649" />
<glyph unicode="&#x2005;" horiz-adv-x="487" />
<glyph unicode="&#x2006;" horiz-adv-x="324" />
<glyph unicode="&#x2007;" horiz-adv-x="324" />
<glyph unicode="&#x2008;" horiz-adv-x="243" />
<glyph unicode="&#x2009;" horiz-adv-x="389" />
<glyph unicode="&#x200a;" horiz-adv-x="108" />
<glyph unicode="&#x2010;" horiz-adv-x="657" d="M606 547h-555v145h555v-145z" />
<glyph unicode="&#x2011;" horiz-adv-x="657" d="M606 547h-555v145h555v-145z" />
<glyph unicode="&#x2012;" horiz-adv-x="657" d="M606 547h-555v145h555v-145z" />
<glyph unicode="&#x2013;" horiz-adv-x="851" d="M0 705h852v-134h-852v134z" />
<glyph unicode="&#x2014;" horiz-adv-x="1703" d="M0 705h1704v-134h-1704v134z" />
<glyph unicode="&#x2018;" horiz-adv-x="411" d="M197 1507l88 -18l-64 -248q88 -21 88 -106q0 -50 -34.5 -82.5t-86.5 -32.5q-46 0 -81 28t-35 89q0 44 43 151z" />
<glyph unicode="&#x2019;" horiz-adv-x="411" d="M215 1020l-88 18l63 248q-88 21 -88 107q0 50 33 82t88 32q49 0 83 -27t34 -89q0 -45 -43 -152z" />
<glyph unicode="&#x201a;" horiz-adv-x="411" d="M215 -250l-88 19l63 247q-88 21 -88 107q0 50 33 82.5t88 32.5q48 0 82.5 -27.5t34.5 -89.5q0 -45 -43 -152z" />
<glyph unicode="&#x201c;" horiz-adv-x="704" d="M489 1507l89 -18l-64 -248q88 -21 88 -106q0 -50 -34.5 -82.5t-86.5 -32.5q-46 0 -81 28t-35 89q0 44 43 151zM197 1507l88 -18l-64 -248q88 -21 88 -106q0 -50 -34.5 -82.5t-86.5 -32.5q-46 0 -81 28t-35 89q0 44 43 151z" />
<glyph unicode="&#x201d;" horiz-adv-x="704" d="M508 1020l-88 18l63 248q-88 21 -88 107q0 50 33 82t88 32q49 0 83 -27t34 -89q0 -45 -43 -152zM215 1020l-88 18l63 248q-88 21 -88 107q0 50 33 82t88 32q49 0 83 -27t34 -89q0 -45 -43 -152z" />
<glyph unicode="&#x201e;" horiz-adv-x="704" d="M508 -262l-88 18l63 248q-88 21 -88 107q0 50 33 82t88 32q49 0 83 -27t34 -89q0 -45 -43 -152zM215 -262l-88 18l63 248q-88 21 -88 107q0 50 33 82t88 32q49 0 83 -27t34 -89q0 -45 -43 -152z" />
<glyph unicode="&#x2022;" horiz-adv-x="772" d="M164 690q0 101 61 164.5t160 63.5t161 -62.5t62 -165.5q0 -102 -62 -163.5t-161 -61.5q-100 0 -160.5 61.5t-60.5 163.5z" />
<glyph unicode="&#x2026;" horiz-adv-x="1492" d="M123 106q0 60 34 97t91 37q58 0 92.5 -36t34.5 -98q0 -61 -34.5 -96t-92.5 -35q-57 0 -91 35t-34 96zM621 106q0 60 33.5 97t90.5 37q58 0 92.5 -36t34.5 -98q0 -61 -34.5 -96t-92.5 -35q-57 0 -90.5 35t-33.5 96zM1118 106q0 60 34 97t91 37q58 0 92.5 -36t34.5 -98 q0 -61 -34.5 -96t-92.5 -35q-57 0 -91 35t-34 96z" />
<glyph unicode="&#x202f;" horiz-adv-x="389" />
<glyph unicode="&#x2039;" horiz-adv-x="559" d="M498 117l-107 -60l-309 455l311 457l105 -56l-240 -393z" />
<glyph unicode="&#x203a;" horiz-adv-x="559" d="M61 909l107 60l309 -455l-311 -457l-105 56l240 393z" />
<glyph unicode="&#x205f;" horiz-adv-x="487" />
<glyph unicode="&#x20ac;" d="M369 737q0 -63 2 -92h420l-25 -131h-383q59 -399 354 -399q72 0 129.5 20.5t98.5 60t69 82.5t56 103l120 -76q-63 -148 -182.5 -239t-288.5 -91q-230 0 -361 133t-165 406h-197l23 131h164q-2 27 -2 86q0 15 1 43t1 41h-144l23 131h133q39 272 183 412.5t372 140.5 q101 0 180.5 -32.5t131 -91.5t83.5 -131.5t47 -162.5l-139 -57q-15 79 -36.5 136.5t-57 104.5t-90 71t-127.5 24q-323 0 -381 -414h453l-25 -131h-438q-2 -27 -2 -78z" />
<glyph unicode="&#x2122;" horiz-adv-x="1484" d="M242 750v630h-222v95h555v-95h-223v-630h-110zM1083 750h-92l-219 604v-604h-100v725h159l209 -592l213 592h150v-725h-100v604z" />
<glyph unicode="&#xe000;" horiz-adv-x="1075" d="M0 1075h1075v-1075h-1075v1075z" />
</font>
</defs>
</svg>
